# xmcd
#
# Track frame offsets: 
#        150
#        15294
#        34571
#        49608
#        64677
#        81726
#        95476
#        110860
#        132120
#        151665
#        172505
#        185503
#        202551
#        226976
#        241779
#        261725
#        278578
#
# Disc length: 3914 seconds
#
# Revision: 0
# Processed by: cddbd v1.5.1PL0 Copyright (c) Steve Scherf et al.
# Submitted via: ExactAudioCopy v0.90a11
#
DISCID=d00f4811
DTITLE=Henry Townsend - The Real St.Louis Blues
DYEAR=1900
DGENRE=
TTITLE0=Can't You See
TTITLE1=Mercy
TTITLE2=Can't Help Myself
TTITLE3=So Long So Long
TTITLE4=Pleasin' Myself
TTITLE5=My Babe
TTITLE6=Crying Won't Make Me Stay
TTITLE7=Sad Story
TTITLE8=I've Got To Go
TTITLE9=Long Ago
TTITLE10=Bye Bye St.Louis
TTITLE11=Room And Board
TTITLE12=What's On Your Mind
TTITLE13=Let Her Go
TTITLE14=I Regret
TTITLE15=Every Once In A While
TTITLE16=Going Back Home
EXTD=
EXTT0=
EXTT1=
EXTT2=
EXTT3=
EXTT4=
EXTT5=
EXTT6=
EXTT7=
EXTT8=
EXTT9=
EXTT10=
EXTT11=
EXTT12=
EXTT13=
EXTT14=
EXTT15=
EXTT16=
PLAYORDER=
